<svg width="28" height="30" viewBox="0 0 28 30" fill="none" xmlns="http://www.w3.org/2000/svg">
<path d="M8.78863 9.2799C8.55947 8.6533 8.56863 7.93731 8.67038 7.28222C9.37089 7.50711 10.0288 7.86288 10.6137 8.33312C10.8704 8.5433 11.2068 8.61106 11.5203 8.5099C12.3247 8.25203 13.1602 8.12231 13.9999 8.1249C14.8808 8.1249 15.7177 8.2624 16.4776 8.50892C16.7911 8.61106 17.1276 8.54231 17.3833 8.33213C17.968 7.862 18.6255 7.50623 19.3257 7.28124C19.4275 7.93633 19.4357 8.65231 19.2084 9.27794C19.0709 9.65508 19.1396 10.0892 19.399 10.3976C20.0627 11.1862 20.4166 12.0928 20.4166 13.0356C20.4166 15.1119 18.6107 17.1479 15.7104 17.7676C14.9844 17.9228 14.7011 18.902 15.2566 19.4628C15.6132 19.8222 15.8332 20.329 15.8332 20.8928V23.8392C15.8332 24.0997 15.9298 24.3495 16.1017 24.5337C16.2736 24.7179 16.5068 24.8213 16.7499 24.8213C16.993 24.8213 17.2262 24.7179 17.3981 24.5337C17.57 24.3495 17.6666 24.0997 17.6666 23.8392V20.8928C17.6666 20.3329 17.5566 19.8006 17.3604 19.3184C20.126 18.2901 22.2499 15.9752 22.2499 13.0356C22.2499 11.7127 21.8062 10.4968 21.0701 9.4783C21.2626 8.67294 21.2452 7.86169 21.1719 7.23901C21.1068 6.68115 21.016 5.95044 20.6494 5.51437C20.104 4.86713 19.2011 5.24821 18.5594 5.48294C17.8711 5.73249 17.2162 6.07754 16.6115 6.50928C15.7581 6.27593 14.8806 6.15879 13.9999 6.16062C13.0887 6.16062 12.2096 6.28338 11.3865 6.51026C10.7818 6.07851 10.1269 5.73346 9.43855 5.48392C8.79688 5.24821 7.89305 4.86713 7.34763 5.51437C6.97363 5.9583 6.89572 6.63106 6.8288 7.20267L6.82422 7.23999C6.75088 7.86365 6.73438 8.67588 6.92688 9.48222C6.19355 10.4997 5.74988 11.7137 5.74988 13.0356C5.74988 15.9742 7.8738 18.2901 10.6394 19.3184C10.4392 19.8088 10.335 20.3379 10.3332 20.8731L10.1792 20.9065C9.52197 21.0037 9.10122 20.9163 8.81522 20.7867C8.11855 20.4704 7.75922 19.6739 7.32105 19.065C7.04788 18.6869 6.65005 18.2145 6.03955 17.9964C5.92531 17.9557 5.8047 17.9394 5.6846 17.9486C5.5645 17.9578 5.44726 17.9922 5.33959 18.05C5.12212 18.1665 4.95679 18.3709 4.87997 18.6181C4.80314 18.8653 4.82112 19.1351 4.92994 19.3681C5.03875 19.6011 5.2295 19.7782 5.46022 19.8605C5.97172 20.0432 6.32555 20.9821 6.65005 21.3986C6.99197 21.8386 7.44663 22.2982 8.09838 22.5948C8.72355 22.8796 9.4578 22.9808 10.3332 22.8659V23.8392C10.3332 24.0997 10.4298 24.3495 10.6017 24.5337C10.7736 24.7179 11.0068 24.8213 11.2499 24.8213C11.493 24.8213 11.7262 24.7179 11.8981 24.5337C12.07 24.3495 12.1666 24.0997 12.1666 23.8392V20.8928C12.1666 20.329 12.3866 19.8222 12.7431 19.4628C13.2996 18.901 13.0154 17.9228 12.2894 17.7676C9.38813 17.1479 7.58322 15.1119 7.58322 13.0356C7.58322 12.0947 7.93613 11.1882 8.59888 10.3995C8.8583 10.0912 8.92613 9.65705 8.78863 9.2799Z" fill="#6885A5"/>
</svg>
