<svg width="30" height="30" viewBox="0 0 28 30" fill="none" xmlns="http://www.w3.org/2000/svg">
<path d="M8.19727 7.60678C8.19699 8.20313 7.97562 8.77494 7.58185 9.19641C7.18809 9.61788 6.65418 9.85449 6.09759 9.85419C5.54099 9.8539 5.00731 9.61671 4.61393 9.19482C4.22056 8.77292 3.99972 8.20088 4 7.60453C4.00028 7.00818 4.22165 6.43638 4.61542 6.0149C5.00919 5.59343 5.54309 5.35682 6.09969 5.35712C6.65628 5.35742 7.18996 5.5946 7.58334 6.01649C7.97671 6.43839 8.19755 7.01043 8.19727 7.60678ZM8.26023 11.5192H4.06296V25.5951H8.26023V11.5192ZM14.8919 11.5192H10.7156V25.5951H14.8499V18.2086C14.8499 14.0938 19.8552 13.7116 19.8552 18.2086V25.5951H24V16.6796C24 9.74289 16.5918 10.0015 14.8499 13.408L14.8919 11.5192Z" fill="#6885A5"/>
</svg>
