<svg width="28" height="30" viewBox="0 0 28 30" fill="none" xmlns="http://www.w3.org/2000/svg">
<path d="M17.8641 8.56652C17.1063 8.56638 16.3787 8.88499 15.838 9.45379C15.2972 10.0226 14.9865 10.7961 14.9726 11.6079L14.9447 13.2904C14.9431 13.3808 14.9236 13.4697 14.8877 13.5514C14.8517 13.6332 14.8 13.7058 14.736 13.7646C14.6719 13.8234 14.597 13.8671 14.5162 13.8927C14.4353 13.9183 14.3503 13.9253 14.2667 13.9132L12.7103 13.6868C10.6623 13.3877 8.70013 12.3771 6.81769 10.6967C6.22145 14.2327 7.38601 16.6822 10.1907 18.572L11.9326 19.745C12.0154 19.8007 12.0841 19.8773 12.1329 19.9681C12.1816 20.0589 12.2088 20.1611 12.2122 20.2657C12.2155 20.3704 12.1949 20.4744 12.152 20.5685C12.1092 20.6626 12.0455 20.7441 11.9665 20.8058L10.3792 22.0482C11.3234 22.1112 12.2198 22.0663 12.9636 21.9082C17.6677 20.9019 20.7955 17.1095 20.7955 10.8537C20.7955 10.3431 19.7864 8.56652 17.8641 8.56652ZM12.9785 11.5684C12.9959 10.5386 13.2965 9.53723 13.8425 8.68961C14.3886 7.84198 15.1559 7.18579 16.0484 6.80318C16.9409 6.42058 17.9188 6.32856 18.8599 6.53866C19.801 6.74875 20.6633 7.25162 21.3389 7.98431C22.0478 7.97896 22.651 8.17125 24 7.29527C23.666 9.04724 23.5015 9.80786 22.7896 10.8537C22.7896 19.0175 18.1064 22.9872 13.3544 24.0031C10.096 24.6996 5.35799 23.5555 4 22.0364C4.69196 21.9787 7.50366 21.655 9.12887 20.3806C7.75393 19.4095 2.28107 15.959 5.87746 6.68208C7.56548 8.79406 9.27743 10.232 11.0123 10.9947C12.1669 11.5021 12.4501 11.4915 12.9795 11.5694L12.9785 11.5684Z" fill="#6885A5"/>
</svg>
